<svg xmlns="http://www.w3.org/2000/svg" viewBox="0 0 1536 776" preserveAspectRatio="xMidYMid" width="1536" height="776" style="shape-rendering: auto; display: block; background: rgb(255, 255, 255);"><g data-idx="1"><linearGradient y2="0" y1="0" x2="1" x1="0" id="lg-nq4q5u6dq7r" data-idx="2">
  <stop offset="0" stop-color="#ff00ff" data-idx="3"></stop>
  <stop offset="1" stop-color="#00ffff" data-idx="4"></stop>
</linearGradient><path opacity="0.4" fill="url(#lg-nq4q5u6dq7r)" d="M 0 0 L 0 449.778 Q 153.6 481.256 307.2 440.49 T 614.4 375.196 T 921.6 357.438 T 1228.8 291.533 T 1536 241.536 L 1536 0 Z" data-idx="5">
  
</path><path opacity="0.4" fill="url(#lg-nq4q5u6dq7r)" d="M 0 0 L 0 460.868 Q 153.6 490.251 307.2 467.092 T 614.4 443.578 T 921.6 408.171 T 1228.8 282.565 T 1536 236.031 L 1536 0 Z" data-idx="7">
  
</path><path opacity="0.4" fill="url(#lg-nq4q5u6dq7r)" d="M 0 0 L 0 573.967 Q 153.6 516.539 307.2 476.997 T 614.4 439.368 T 921.6 411.756 T 1228.8 287.557 T 1536 237.602 L 1536 0 Z" data-idx="9">
  
</path><path opacity="0.4" fill="url(#lg-nq4q5u6dq7r)" d="M 0 0 L 0 485.251 Q 153.6 470.257 307.2 437.354 T 614.4 369.616 T 921.6 401.789 T 1228.8 304.07 T 1536 285.429 L 1536 0 Z" data-idx="11">
  
</path><path opacity="0.4" fill="url(#lg-nq4q5u6dq7r)" d="M 0 0 L 0 550.835 Q 153.6 548.185 307.2 508.592 T 614.4 361.796 T 921.6 295.654 T 1228.8 301.818 T 1536 246.394 L 1536 0 Z" data-idx="13">
  
</path><g data-idx="15"></g></g><text data-watermark="true" text-anchor="middle" dominant-baseline="middle" stroke-opacity="0.1" fill="black" fill-opacity="0.1" stroke="white" stroke-width="1" font-size="15.0" x="768.0" y="388.0" data-idx="16" style="opacity: 1; font-size: 15px;">LOADING.IO</text></svg>